<?xml version="1.0" standalone="no"?>
<!DOCTYPE svg PUBLIC "-//W3C//DTD SVG 20010904//EN"
 "http://www.w3.org/TR/2001/REC-SVG-20010904/DTD/svg10.dtd">
<svg version="1.0" xmlns="http://www.w3.org/2000/svg"
 width="1099.000000pt" height="311.000000pt" viewBox="0 0 1099.000000 311.000000"
 preserveAspectRatio="xMidYMid meet">

<g transform="translate(0.000000,311.000000) scale(0.100000,-0.100000)"
fill="#000000" stroke="none">
<path d="M1835 2358 c-3 -8 -4 -81 -3 -163 3 -142 4 -150 23 -150 19 0 20 7
20 160 0 144 -2 160 -18 163 -9 2 -19 -3 -22 -10z"/>
<path d="M1223 2113 c-7 -2 -13 -12 -13 -22 0 -22 215 -234 232 -229 36 12 17
44 -88 149 -60 60 -111 109 -114 108 -3 0 -11 -3 -17 -6z"/>
<path d="M2357 2012 c-104 -105 -124 -136 -91 -149 19 -7 234 202 234 228 0
13 -18 29 -33 29 -2 0 -51 -48 -110 -108z"/>
<path d="M3503 2102 c-97 -34 -170 -105 -212 -205 -23 -56 -25 -75 -25 -192 0
-112 3 -138 23 -189 43 -108 125 -173 248 -195 34 -7 79 -9 101 -5 39 6 40 7
44 53 7 70 2 73 -90 75 -78 1 -82 2 -116 35 -58 57 -81 121 -81 231 0 108 13
156 58 206 44 51 76 64 157 64 l70 0 0 60 c0 48 -4 61 -19 70 -29 15 -100 12
-158 -8z"/>
<path d="M4579 2113 c-33 -4 -38 -8 -42 -36 -3 -18 -6 -191 -6 -384 0 -337 0
-353 19 -363 44 -23 243 1 318 39 48 25 81 65 118 145 50 109 44 327 -11 437
-58 113 -128 155 -270 162 -49 2 -106 2 -126 0z m172 -134 c85 -29 122 -107
123 -259 1 -112 -8 -149 -51 -208 -30 -41 -75 -64 -116 -60 l-32 3 -3 259 c-3
297 -4 292 79 265z"/>
<path d="M6290 2111 c-118 -36 -220 -143 -256 -269 -24 -82 -20 -197 10 -282
62 -179 207 -272 382 -244 l59 9 7 170 c9 232 13 221 -72 228 -38 3 -85 3
-105 0 -34 -6 -35 -7 -35 -53 0 -51 9 -60 56 -60 23 0 24 -2 24 -85 0 -82 -1
-85 -22 -85 -13 0 -42 9 -64 19 -33 15 -47 30 -68 72 -49 101 -58 234 -21 322
24 58 81 115 127 127 23 7 68 8 109 4 l69 -7 0 56 c0 77 -13 87 -103 86 -40 0
-83 -4 -97 -8z"/>
<path d="M6709 2113 l-77 -4 -7 -267 c-7 -246 -3 -497 8 -508 2 -3 27 -7 54
-10 80 -10 83 -3 83 192 l0 164 95 0 96 0 -3 66 -3 67 -88 2 c-49 2 -90 4 -92
6 -5 6 -7 40 -6 102 l1 57 54 0 c29 0 74 3 100 6 l46 7 0 48 c0 79 -1 79 -99
77 -47 -1 -120 -4 -162 -5z"/>
<path d="M8605 2111 l-80 -6 -3 -383 -2 -382 26 -10 c34 -13 270 -13 295 0 15
9 19 22 19 64 0 32 -5 58 -13 64 -7 6 -51 12 -97 14 l-85 3 0 100 0 100 90 5
89 5 8 36 c4 20 4 49 -1 65 -7 29 -8 29 -87 30 -43 1 -85 2 -92 3 -10 1 -12
21 -10 79 l3 77 45 2 c25 2 69 5 98 9 l53 6 -3 61 -3 62 -85 1 c-47 0 -121 -2
-165 -5z"/>
<path d="M9133 2114 c-10 -4 -13 -78 -13 -320 0 -206 -4 -322 -11 -335 -9 -17
-19 -20 -57 -17 l-47 3 -7 -59 c-4 -33 -6 -62 -3 -64 2 -3 35 -7 72 -9 80 -5
125 13 159 64 21 31 22 48 29 373 5 230 4 345 -3 352 -11 11 -100 20 -119 12z"/>
<path d="M9542 2107 c-106 -39 -170 -162 -141 -270 9 -34 33 -63 122 -150 107
-104 110 -109 115 -158 4 -42 1 -54 -18 -74 -36 -39 -82 -42 -141 -11 -28 14
-55 26 -60 26 -11 0 -40 -97 -33 -114 14 -37 167 -59 250 -36 121 34 178 175
120 295 -28 58 -66 101 -153 175 -67 57 -89 99 -78 151 10 45 61 65 112 44 20
-9 42 -14 49 -11 15 6 45 92 38 110 -6 16 -78 36 -121 35 -15 0 -43 -6 -61
-12z"/>
<path d="M4013 2094 c-59 -21 -127 -86 -158 -147 -52 -107 -56 -290 -8 -437
24 -77 109 -162 183 -184 67 -20 93 -20 157 -1 59 17 135 81 163 134 33 65 52
161 52 261 -1 194 -51 299 -172 361 -56 29 -156 35 -217 13z m167 -118 c67
-45 107 -170 97 -301 -10 -122 -46 -192 -114 -221 -45 -19 -77 -17 -124 7 -32
16 -46 33 -67 77 -25 52 -27 68 -27 178 0 114 2 123 30 179 51 101 131 132
205 81z"/>
<path d="M5155 2097 c-3 -6 -4 -185 -3 -397 l3 -385 58 -3 c35 -2 64 2 73 9
12 9 14 69 14 339 0 180 -3 355 -6 389 l-7 61 -64 0 c-42 0 -65 -4 -68 -13z"/>
<path d="M5437 2103 c-4 -3 -7 -183 -7 -400 l0 -393 65 0 c45 0 65 4 66 13 0
6 0 108 -1 225 -1 116 2 212 7 212 4 0 35 -64 67 -143 33 -78 76 -179 97 -224
l38 -83 50 0 c39 0 53 4 61 19 11 22 14 639 4 729 l-7 52 -64 0 -64 0 3 -225
c2 -124 0 -225 -3 -225 -8 0 -51 97 -130 293 l-63 157 -56 0 c-31 0 -60 -3
-63 -7z"/>
<path d="M7265 2098 c-2 -7 -24 -107 -49 -223 -25 -115 -61 -280 -81 -365 -19
-85 -35 -163 -35 -172 0 -15 10 -18 65 -18 62 0 65 1 71 28 18 81 13 77 99 77
l78 0 17 -50 17 -50 61 -3 c49 -2 62 0 62 12 0 8 -22 115 -49 238 -27 122 -64
294 -82 381 l-33 157 -68 0 c-46 0 -70 -4 -73 -12z m94 -407 c31 -129 30 -131
-24 -131 -38 0 -45 3 -45 19 0 22 40 201 45 201 2 0 13 -40 24 -89z"/>
<path d="M7786 2093 c-2 -10 -7 -43 -10 -73 -3 -30 -22 -198 -42 -374 -30
-266 -34 -320 -23 -327 8 -5 38 -9 66 -9 62 0 55 -18 79 190 9 80 20 152 24
160 11 20 22 -9 60 -163 51 -203 43 -188 107 -185 l56 3 34 145 c43 187 53
218 64 198 5 -8 18 -86 29 -174 12 -87 24 -162 26 -166 7 -10 105 -10 121 0 9
6 6 42 -12 152 -13 80 -36 257 -51 393 l-28 248 -65 -3 -65 -3 -38 -173 c-41
-193 -59 -254 -76 -260 -15 -5 -53 128 -117 416 -5 20 -11 22 -70 22 -52 0
-65 -3 -69 -17z"/>
<path d="M1760 1962 c-13 -11 -25 -35 -29 -57 -4 -28 -14 -44 -32 -54 -24 -13
-29 -13 -57 7 -52 38 -90 30 -150 -31 -59 -59 -67 -95 -32 -140 37 -47 24 -79
-39 -91 -61 -11 -71 -29 -71 -121 0 -72 3 -84 23 -103 13 -12 34 -22 48 -22
30 0 43 -9 58 -38 10 -19 8 -28 -14 -59 -14 -21 -25 -47 -25 -58 0 -10 26 -45
57 -77 65 -66 100 -74 148 -36 40 31 78 16 86 -35 10 -65 30 -77 123 -77 45 0
86 4 92 8 17 11 34 48 34 76 0 18 9 30 30 41 27 14 31 14 66 -10 20 -14 45
-25 56 -25 11 0 46 25 79 57 66 63 75 97 39 143 -37 48 -19 83 49 94 52 8 61
26 61 124 0 90 -12 109 -74 119 -23 4 -43 15 -52 29 -14 21 -13 26 11 69 35
59 29 78 -39 143 -63 60 -84 64 -139 26 -36 -24 -40 -25 -63 -10 -17 12 -24
26 -24 47 0 18 -9 39 -25 54 -21 22 -33 25 -98 25 -57 0 -80 -4 -97 -18z m157
-62 c11 -85 11 -85 68 -109 l55 -23 42 31 42 31 38 -37 c21 -20 38 -41 38 -45
0 -5 -12 -26 -26 -48 l-26 -39 23 -56 c24 -57 23 -57 109 -68 11 -2 15 -16 15
-62 l0 -60 -48 -9 c-46 -8 -49 -11 -73 -63 l-24 -55 31 -40 32 -39 -30 -37
c-38 -47 -56 -50 -99 -17 l-35 27 -57 -23 c-31 -13 -58 -24 -60 -25 -2 -1 -6
-24 -10 -51 l-7 -48 -60 0 -60 0 -8 50 c-8 49 -9 50 -62 71 l-55 21 -40 -29
-40 -29 -40 33 c-22 18 -40 39 -40 46 0 7 12 29 26 48 l26 34 -24 58 c-24 55
-27 57 -74 68 l-49 10 0 59 0 60 48 7 c27 4 50 8 51 10 1 2 12 26 23 55 l21
51 -30 42 -31 42 41 41 41 40 40 -26 c22 -15 44 -27 48 -27 4 0 31 10 60 22
50 20 53 23 59 67 4 25 9 50 11 54 3 4 30 7 61 5 41 -2 57 -7 59 -18z"/>
<path d="M1785 1679 c-45 -13 -105 -67 -126 -113 -22 -49 -24 -131 -5 -177 17
-39 67 -90 113 -113 44 -22 135 -21 181 3 167 86 161 324 -10 395 -40 17 -105
19 -153 5z m153 -76 c68 -51 87 -121 54 -196 -37 -82 -135 -111 -217 -62 -139
81 -68 296 94 281 24 -2 55 -12 69 -23z"/>
<path d="M953 1484 c-13 -34 24 -44 167 -44 143 0 180 10 167 44 -6 14 -27 16
-167 16 -140 0 -161 -2 -167 -16z"/>
<path d="M2423 1484 c-13 -34 24 -44 167 -44 144 0 178 9 164 43 -5 15 -24 17
-165 17 -139 0 -160 -2 -166 -16z"/>
<path d="M3613 1030 c-64 -38 -66 -163 -3 -195 41 -21 70 -19 70 4 0 14 -8 21
-27 23 -40 4 -60 45 -48 95 8 31 16 40 43 48 21 6 32 15 32 27 0 24 -27 23
-67 -2z"/>
<path d="M3903 1030 c-32 -19 -59 -80 -49 -111 2 -8 7 -26 10 -41 10 -47 106
-81 106 -39 0 14 -8 21 -27 23 -40 4 -60 45 -48 95 8 31 16 40 43 48 21 6 32
15 32 27 0 24 -27 23 -67 -2z"/>
<path d="M4205 1040 c-40 -16 -57 -46 -57 -104 -1 -90 50 -139 111 -105 38 22
52 56 48 117 -5 73 -50 113 -102 92z m55 -45 c18 -21 18 -98 1 -118 -18 -23
-58 -21 -71 2 -36 69 25 170 70 116z"/>
<path d="M5057 1043 c-4 -3 -7 -53 -7 -110 0 -117 3 -121 69 -103 46 12 71 48
71 100 0 47 -26 99 -55 110 -30 11 -69 13 -78 3z m77 -55 c30 -42 10 -128 -30
-128 -11 0 -14 16 -14 75 0 81 13 97 44 53z"/>
<path d="M5365 1037 c-3 -7 -4 -58 -3 -113 l3 -99 45 0 c38 0 45 3 45 20 0 14
-8 21 -28 23 -24 3 -28 7 -25 30 2 21 9 28 31 30 35 4 30 26 -6 30 -21 3 -27
9 -27 28 0 20 5 24 31 24 24 0 30 4 27 18 -4 22 -85 31 -93 9z"/>
<path d="M5844 1037 c-2 -7 -3 -58 -2 -113 3 -83 6 -99 20 -102 14 -3 17 6 20
50 3 50 5 53 31 56 15 2 27 9 27 17 0 8 -12 15 -27 17 -20 2 -28 9 -28 23 0
14 8 21 28 23 19 2 27 9 27 23 0 16 -7 19 -45 19 -29 0 -48 -5 -51 -13z"/>
<path d="M6163 1035 c-84 -36 -57 -215 32 -215 87 0 115 174 35 215 -34 18
-27 18 -67 0z m67 -46 c14 -25 12 -103 -2 -117 -18 -18 -56 -14 -68 7 -5 11
-10 38 -10 60 0 68 53 101 80 50z"/>
<path d="M6967 1043 c-4 -3 -7 -53 -7 -110 0 -117 3 -121 68 -104 51 14 77 62
68 125 -8 46 -21 67 -53 84 -24 13 -66 16 -76 5z m81 -63 c22 -43 0 -120 -34
-120 -11 0 -14 18 -14 76 0 66 2 75 17 72 10 -2 23 -14 31 -28z"/>
<path d="M7272 938 l3 -113 43 -3 c40 -3 43 -2 40 20 -2 15 -11 24 -26 26 -32
5 -28 55 6 60 31 5 29 32 -3 32 -20 0 -25 5 -25 24 0 19 6 25 28 28 16 2 27 9
27 18 0 11 -13 16 -48 18 l-48 3 3 -113z"/>
<path d="M7858 958 c-4 -125 1 -138 52 -138 37 0 41 2 38 23 -2 14 -11 23 -26
25 -32 5 -28 55 6 60 31 5 29 32 -3 32 -20 0 -25 5 -25 25 0 20 5 25 25 25 18
0 25 5 25 20 0 17 -7 20 -44 20 l-45 0 -3 -92z"/>
<path d="M9012 938 l3 -113 43 -3 c40 -3 43 -2 40 20 -2 15 -11 24 -26 26 -32
5 -28 55 6 60 31 5 29 32 -3 32 -20 0 -25 5 -25 25 0 20 5 25 25 25 18 0 25 5
25 20 0 17 -7 20 -45 20 l-46 0 3 -112z"/>
<path d="M9595 1026 c-33 -33 -32 -49 11 -96 44 -49 43 -76 -5 -72 -26 2 -32
-1 -29 -15 5 -25 64 -30 89 -7 28 26 23 59 -16 103 -42 46 -45 71 -9 71 19 0
25 5 22 17 -5 27 -35 27 -63 -1z"/>
<path d="M3305 1028 c-5 -14 -45 -195 -45 -203 0 -12 31 -4 36 10 4 8 16 15
29 15 13 0 25 -7 29 -15 6 -16 36 -21 36 -5 0 5 -10 54 -21 110 -18 84 -25
100 -41 100 -10 0 -21 -6 -23 -12z m35 -125 c0 -7 -7 -13 -16 -13 -11 0 -14 5
-10 16 3 9 6 21 6 27 0 16 20 -14 20 -30z"/>
<path d="M4482 933 l3 -108 45 0 c33 0 45 4 45 15 0 9 -11 16 -27 18 l-28 3 0
90 c0 83 -1 89 -20 89 -20 0 -21 -5 -18 -107z"/>
<path d="M4772 938 c-12 -57 -22 -106 -22 -110 0 -14 31 -8 36 7 4 8 16 15 29
15 13 0 25 -7 29 -15 3 -8 13 -15 22 -15 12 0 15 6 11 23 -3 12 -13 61 -23
110 -16 76 -21 87 -39 87 -19 0 -24 -11 -43 -102z m57 -40 c1 -5 -6 -8 -15 -8
-11 0 -14 5 -10 16 3 9 6 21 7 27 0 12 17 -20 18 -35z"/>
<path d="M6450 929 c0 -100 2 -110 18 -107 11 2 19 16 23 38 l6 35 16 -37 c12
-26 24 -38 37 -38 25 0 25 2 0 51 -19 36 -19 42 -5 62 17 25 19 60 5 88 -8 14
-21 19 -55 19 l-45 0 0 -111z m65 46 c0 -16 -6 -30 -12 -32 -9 -3 -13 7 -13
32 0 25 4 35 13 33 6 -3 12 -17 12 -33z"/>
<path d="M7544 1008 c4 -18 16 -68 27 -110 16 -60 25 -78 39 -78 13 0 23 21
44 98 31 118 31 122 7 122 -16 0 -22 -11 -32 -60 -6 -33 -15 -62 -19 -65 -3
-2 -12 25 -19 60 -11 54 -17 65 -33 65 -18 0 -20 -4 -14 -32z"/>
<path d="M8122 933 l3 -108 48 -3 c42 -3 48 -1 45 15 -2 11 -14 19 -31 21
l-27 3 0 90 c0 83 -1 89 -20 89 -20 0 -21 -5 -18 -107z"/>
<path d="M8410 1013 c-18 -24 -21 -38 -18 -87 4 -49 9 -63 32 -83 35 -30 71
-29 101 2 34 33 36 128 4 169 -29 37 -89 37 -119 -1z m98 -28 c25 -55 7 -125
-32 -125 -13 0 -30 7 -37 17 -17 20 -17 97 1 118 20 24 55 19 68 -10z"/>
<path d="M8730 930 c0 -91 3 -110 15 -110 11 0 15 11 15 40 0 32 4 40 18 40
30 0 56 37 55 76 -1 47 -18 64 -64 64 l-39 0 0 -110z m66 55 c6 -25 -9 -55
-27 -55 -5 0 -9 18 -9 40 0 46 25 57 36 15z"/>
<path d="M9272 933 c3 -92 5 -108 20 -111 13 -3 17 6 20 40 l3 43 23 -42 c15
-28 29 -43 42 -43 19 0 19 1 -2 45 -21 44 -21 44 -2 80 17 32 18 38 4 63 -13
23 -23 28 -63 30 l-48 3 3 -108z m73 57 c7 -21 -9 -50 -26 -50 -5 0 -9 16 -9
35 0 39 24 49 35 15z"/>
<path d="M1667 904 c-13 -13 -7 -42 9 -48 24 -9 347 -7 362 3 8 5 12 17 10 27
-3 18 -16 19 -189 22 -102 1 -188 -1 -192 -4z"/>
<path d="M1702 791 c-8 -4 -12 -17 -10 -27 3 -18 15 -19 163 -19 l160 0 0 25
0 25 -150 2 c-82 2 -156 -1 -163 -6z"/>
<path d="M1750 670 c0 -26 54 -86 86 -94 34 -9 73 12 101 53 39 58 35 61 -82
61 -98 0 -105 -1 -105 -20z"/>
</g>
</svg>
